<svg width="400" height="400" xmlns="http://www.w3.org/2000/svg">
 <!-- Created with Method Draw - http://github.com/duopixel/Method-Draw/ -->
 <!-- Yep, that nasty shit was made using a tool made for making svg :D -->
 <g>
  <title>background</title>
  <rect fill="#fff" id="canvas_background" height="402" width="402" y="-1" x="-1"/>
  <g display="none" overflow="visible" y="0" x="0" height="100%" width="100%" id="canvasGrid">
   <rect fill="url(#gridpattern)" stroke-width="0" y="0" x="0" height="100%" width="100%"/>
  </g>
 </g>
 <g>
  <title>Layer 1</title>
  <path d="m182.750122,254.224625c-0.999985,0 -1.499985,0 -1.999985,0c-0.499985,0 -0.331619,2.353897 -15.499893,8.999924c-1.448212,0.634552 -13.871918,10.621887 -21.499847,18.499878c-1.475616,1.523987 -1.999985,2.5 -1.999985,3c0,0.499969 0.128616,0.776062 1.999985,1.999969c3.268204,2.137482 7.955551,5.636627 16.999878,8.499939c4.976685,1.575562 18.004837,2.162201 29.499802,2.5c8.510956,0.250122 8.999939,0.5 9.499939,0.5c0.5,0 1.146439,-0.353546 1.499985,0c0.353531,0.353546 0.497589,0.545319 9.499939,0.999969c10.997269,0.55542 20.999847,1.5 21.999847,1.5c0.5,0 0.999985,0 2.499985,0c0.499985,0 0.499985,0.5 0.999985,0.5c1,0 1.487137,0.16098 12.999908,1c8.492126,0.618866 22.008026,1.917542 32.499786,2.999969c9.007507,0.929291 9.490082,1.249908 18.999878,1.5c7.497345,0.197174 12.161743,-0.760071 12.999908,-1.5c2.702972,-2.386139 2.746704,-3.93924 2.999969,-5.499969c0.080078,-0.49353 0.229401,-0.84671 0.5,-1.499969c1.530792,-3.695496 1.235901,-11.187775 -6.499969,-17.999878c-12.807861,-11.278473 -19.244629,-12.069977 -19.499847,-12.499939c-3.198029,-5.387207 -6.945831,-4.097839 -10.499939,-5.999939c-2.957214,-1.582642 -5.309967,-2.337494 -7.999939,-3.999969c-0.601501,-0.371735 -3.043701,-1.896957 -5.499969,-2.999985c-1.019928,-0.458008 -3.238861,-1.415985 -7.499939,-3.499985c-1.619446,-0.792038 -3.32373,-2.486237 -5.499969,-2.999969c-0.973236,-0.229752 -2.654984,-0.668762 -3.999969,-1.5c-0.601501,-0.371735 -1.274567,-1.97757 -2.999985,-2.499969c-0.957077,-0.28978 -2.042892,-1.21022 -2.999969,-1.5c-1.725418,-0.5224 -3.3069,-1.648483 -4.499969,-2.999969c-0.739914,-0.838165 -1.593002,-0.846283 -2.499985,-1.5c-1.147263,-0.826904 -2.398483,-1.128235 -2.999985,-1.499985c-1.344986,-0.831253 -2.426361,-1.086548 -2.999985,-1.499985c-0.906982,-0.653717 -2.480057,-1.041992 -3.499969,-1.5c-2.456268,-1.103027 -3.274551,-1.97757 -4.999969,-2.499985c-0.957077,-0.28978 -1.84671,-0.729385 -2.499985,-0.999985c-0.923859,-0.382675 -1.951401,-0.112106 -2.999969,-0.5c-1.933487,-0.715256 -9.566437,-3.284729 -11.499924,-3.999969c-2.097153,-0.775803 -4.0401,-1.155365 -5.499954,-1.499985c-2.176254,-0.513748 -3.146439,-1.146454 -3.499985,-1.5c-1.060654,-1.060654 -2.499985,0 -3.499969,0c-1,0 -1.5,0 -2.499985,0c-1,0 -1.999985,0 -2.999985,0c-0.999985,0 -1.69342,0.458801 -2.999969,1c-1.847763,0.765381 -3.012894,0.339813 -3.999985,0.5c-1.560699,0.253265 -2.967041,1.072128 -3.999969,1.499985c-1.46077,0.605072 -2.876526,1.166336 -3.499969,1.499985c-2.247818,1.203003 -4.035873,1.345612 -6.499954,1.999985c-1.528168,0.405823 -3.07962,1.305328 -4.499969,1.999985c-1.619461,0.792053 -2.279083,1.759644 -3.999969,2.999985c-0.906998,0.653732 -6.499954,6.499954 -7.499954,7.499954c-1,0.999985 -2.103394,2.906296 -2.999985,3.999969c-1.142929,1.39415 -2.183853,2.781952 -3.999969,4.499969c-1.309616,1.238876 -2.619446,2.369492 -6.999954,6.499954c-0.514465,0.485107 -14.794853,18.589478 -17.499878,24.499817c-1.861115,4.066437 -5.237724,7.796509 -5.999954,11.999939c-0.089211,0.491974 -1.412781,4.583984 -0.5,9.499939c1.271355,6.847107 4.103882,11.96524 7.999947,12.999908c11.597908,3.080017 28.863045,-3.663055 49.499657,-5.499969c15.446884,-1.374969 28.994293,-0.749969 45.99968,-1c13.998398,-0.205811 32.964157,1.998779 50.499649,2.999969c17.478546,0.997955 31.499786,1 41.999725,1c1.999969,0 6.327087,-3.197968 3.499969,-7.499939c-4.503662,-6.85318 -16.006622,-16.228607 -32.499786,-19.999878c-20.616058,-4.71402 -57.002533,2.945984 -57.499588,3c-25.447769,2.766174 -31.314911,4.779724 -49.499664,8.999939c-1.540192,0.357452 -16.492035,2.567413 -20.499863,2.999969c-5.490753,0.59259 -7.525757,0.179626 -9.499924,0.5c-1.560715,0.253265 -4.040115,0.155365 -5.499969,0.5c-1.088104,0.256866 -1.499985,0.5 -3.499969,0.5c-1.999985,0 -2.84671,0.229401 -3.499985,0.5c-2.771614,1.148041 -3.999969,0 -4.499962,0c-0.5,0 -0.84671,-1.229401 -1.499992,-1.5c-0.923874,-0.38269 -1.146439,-0.146454 -1.499992,-0.5c-0.353554,-0.353546 -0.499992,-0.5 -0.999992,-1c-0.499992,-0.5 -1.074669,-1.237122 -1.499985,-1.499969c-0.951057,-0.587799 -0.535446,-1.501251 -0.5,-2c0.501259,-7.053223 0.94075,-7.595062 2.499985,-8.499939c1.933983,-1.122345 3.202057,-3.073578 10.499924,-6.499969c3.866959,-1.815552 7.8694,-3.4245 16.999878,-5.999939c27.664886,-7.803406 29.499802,-7 32.999771,-7.499969c3.499985,-0.5 8.981247,-1.749664 13.999908,-1.999969c3.99501,-0.199249 8.473297,-0.249359 11.999924,-0.5c4.987381,-0.354431 6.499954,0 9.999924,0c1.999985,0 5.999954,0 12.499908,0c3.999985,0 16.512054,0.753662 18.999878,1c2.537094,0.251221 5.499954,1 6.999939,1c1.5,0 9.499939,2.499969 9.499939,1.999969c0,-1 -1.19342,-0.458801 -2.499969,-1c-0.923889,-0.38269 -2.93927,-0.746704 -4.499969,-0.999969c-1.974182,-0.320343 -3.499969,-0.5 -5.499969,-0.5c-2.999985,0 -4.999969,0 -8.999939,0c-2.999969,0 -6.944183,-1.931 -36.999741,5.999939c-15.287979,4.034149 -15.73703,5.074646 -15.999893,5.499969c-0.587769,0.95105 -1.499985,0.5 -1.999985,0.5c-0.5,0 -1.092987,0.346283 -1.999985,1c-0.573639,0.413452 -0.945999,0.621979 -10.999924,4.999969c-9.450577,4.115234 -21.565903,7.472717 -24.499832,5.499939c-1.710754,-1.150299 -0.5,-2.999969 -0.5,-3.499969c0,-0.5 -0.156097,-1.098694 3.999969,-7.499939c6.268219,-9.654419 13.212036,-19.452759 14.999908,-27.999817c1.22847,-5.872849 -1.124924,-10.731216 0.499985,-11.999908c0.788208,-0.615417 2,0 2.499985,0c0.5,0 1,0 1.5,0c0.499985,0 8.57045,0.378677 9.499924,0.999985c11.668732,7.799881 26.413528,1.902069 39.499725,4.499969c8.949432,1.776657 16.633789,3.205048 23.499847,6.499954c7.663239,3.67746 13.148453,7.749512 17.499863,10.499939c3.635742,2.298065 5.993439,5.37851 6.499969,8.499939c0.48056,2.961243 0,3.499969 0,3.999969c0,0.5 0.363983,1.348236 -2.999969,4.499969c-1.824371,1.70929 -4.499969,2.999969 -6.499969,4.499969l-0.5,0l-1,0" id="svg_27" fill-opacity="null" stroke-width="25" stroke="#666666" fill="none"/>
  <path d="m153.250336,263.724548c0.999985,0 1.434128,-0.144287 3.499969,-0.999969c1.460785,-0.605072 2.592987,-0.846252 3.499985,-1.5c0.573624,-0.413452 2.543701,-0.896973 4.999954,-2c3.059723,-1.374023 4.609573,-1.766418 7.999954,-3.499969c2.59581,-1.327271 5.999954,-2.999985 8.999939,-4.499969c1.999985,-0.999985 5.53981,-2.42395 7.499939,-3.499969c5.111404,-2.805893 7.805466,-3.96402 8.999939,-4.999969c0.84462,-0.732529 2.044098,-4.171356 20.499863,-10.999924c10.122772,-3.745392 22.041214,-3.837524 30.499786,-2.999969c7.611237,0.753662 15.034821,2.810745 16.499878,4.499969c2.071899,2.388931 -2.211609,5.854019 -5.999939,14.999893c-0.191345,0.461945 -0.538055,0.80864 -1,0.999985c-0.65329,0.270599 -1.237122,0.574677 -1.5,1c-0.587799,0.95105 -1.222107,0.584305 -1.499969,0.999985c-8.72049,13.046082 -33.114334,9.476379 -55.499634,12.499908c-11.079651,1.49649 -16.039734,4.42395 -17.999878,5.499969c-2.555695,1.402954 -5.04892,3.587769 -5.999954,2.999969c-0.850616,-0.525726 0,-1.499969 0,-1.999969c0,-0.5 0,-1 0,-1.5c0,-0.5 2.999985,-8.499939 3.499985,-9.499939l4.999954,-9.999924l2.999985,-4.499969l0.5,-0.499985" id="svg_28" fill-opacity="null" stroke-width="25" stroke="#666666" fill="none"/>
  <path d="m307.749268,109.725624c-1.5,0 -11.39505,-0.495117 -14.999908,-0.999992c-2.970978,-0.4161 -4.499969,0 -4.999969,0c-0.499969,0 -0.999969,0 -1.499969,0c-1,0 -2,0 -2.5,0l-0.5,0l-0.499969,0l-1.5,0" id="svg_15" stroke-opacity="null" stroke-width="25" stroke="#000" fill="#729C62"/>
  <path d="m212.749924,117.725571c-1.999985,-0.999992 -7.499954,-1.499992 -12.999908,-1.499992c-0.5,0 -12.847275,-3.825989 -39.999725,10.499931c-13.192688,6.960602 -13.448929,16.520081 -12.999908,21.499847c0.502014,5.567551 2.658463,10.150467 4.999969,14.999893c3.505524,7.260193 7.219772,13.218033 9.999924,16.499893c2.285263,2.697662 5.188812,5.200775 8.499939,7.499939c3.207642,2.22731 5.554108,3.567307 8.499939,2.999985c2.643982,-0.509186 6.349442,-3.160156 8.999939,-5.499954c4.273804,-3.772827 8.538055,-6.519653 12.499924,-11.499924c2.936539,-3.691391 6.692596,-8.885803 8.999924,-12.999908c2.187576,-3.900558 4.75235,-10.088242 6.999954,-15.999893c1.353241,-3.559296 1.999985,-5.999954 1.999985,-8.499939c0,-3.499985 -1.77449,-5.303177 -3.499969,-7.999947c-0.60257,-0.94175 -3.226929,-3.741043 -10.499924,-5.999962c-4.869522,-1.512421 -5.465988,-1.300591 -12.999908,-1.999985c-9.472366,-0.879349 -16.656769,-0.920296 -22.499847,1.499992c-4.131683,1.711403 -8.04274,5.981926 -9.499939,9.499931c-2.060791,4.97522 -2.878464,8.35199 -3.499969,10.499924c-1.396667,4.826904 -1.367508,8.575775 -0.5,13.499908c1.015396,5.76355 3.321548,9.015991 3.499969,9.999939c0.762238,4.203415 6.279053,14.259537 7.999954,15.499893c0.906982,0.653717 1.499985,0.999985 2.999969,0.999985c1,0 1.232986,-0.686539 1.999985,-1.499985c2.61232,-2.770508 1.5,-6.499954 1.5,-8.999939c0,-1.999985 0,-4.499969 0,-6.499954c0,-1.999985 -1.33223,-2.27095 -2.499985,-0.5c-1.482239,2.247864 -2.110092,4.397415 -3.499969,5.999954c-1.638,1.888626 -2.752563,4.669922 -8.999939,13.499908c-1.443924,2.040833 -2.725235,3.725235 -3.999985,4.999969c-1.27475,1.274734 -3.075455,1.2173 -3.999969,2.499985c-0.292358,0.405624 -0.5,0.5 -1.499985,0.5c-0.5,0 -2.10582,-0.857056 -3.499985,-2c-0.546814,-0.448288 -1.709412,-0.709427 -2.499969,-1.499985c-0.790558,-0.790558 -2.456802,-1.562012 -4.499969,-10.999924c-1.907181,-8.809738 0.131531,-17.009155 -0.5,-38.499725c-0.250107,-8.510971 -1.661179,-17.467278 -2.999985,-24.49984c-1.137543,-5.975403 -3.122635,-13.617004 -4.999969,-18.999863c-2.507927,-7.190933 -3.37429,-13.713264 -7.499939,-15.999893c-0.437325,-0.242386 -1.188202,-0.040154 -1.999985,-1.999985c-0.191338,-0.461937 -1.43927,-1.746719 -2.999985,-1.999985c-2.467697,-0.400452 -4.751854,1.046104 -4.499969,-0.999992c0.122185,-0.9925 1.146439,-0.146446 1.499992,-0.5c0.353554,-0.353554 0.999992,0 1.499992,0c0.499992,0 10.995934,-0.749977 34.499756,-0.999992c20.998672,-0.223366 38.999741,0 39.999725,0c14.999893,0 16.999878,0 25.499832,0c0.499985,0 0.999985,0 3.499969,0c7.999939,0 12.499908,0 14.999893,0c2.499985,0 3.999969,0 5.499969,0c1.499985,0 2.499985,0 2.999969,0c1.5,0 2.499985,0 2.999985,0c1.499985,0 2.999985,0 4.499969,0c0.999985,0 1.499985,0 2.499985,0c0.5,0 0.999985,0 1.999985,0.999992c0.5,0.5 1.5,1 1.999969,1.499992c0.999969,1.000008 1.572144,1.967056 2,2.999977c0.605072,1.460777 1.040375,2.992241 1.5,5.499962c0.548309,2.991524 1.249481,4.976624 1.499969,8.999939c0.155334,2.495155 0.5,6.499954 0.5,8.999939c0,2.499977 -0.773499,5.056145 -1.499969,7.499947c-0.767242,2.580948 -2.034912,4.994354 -2.5,7.999947c-0.540649,3.493919 -1.171539,6.437988 -1.999969,8.999931c-0.634277,1.961548 -0.684784,4.117615 -2.5,8.499939c-0.855698,2.065842 -1.896957,4.043701 -2.999969,6.499954c-0.916016,2.039825 -1.973419,4.005447 -2.499985,6.499969c-2.856232,13.531036 -2.999985,14.999893 -2.999985,15.499878c0,1.5 -1.5,3.499985 -0.5,3.499985c1,0 -0.229401,-1.34671 -0.499985,-1.999985c-0.191345,-0.461945 -0.440674,-2.512589 -1,-4.999969c-0.452286,-2.011307 0.531448,-2.912048 -1.499985,-6.499954c-0.348389,-0.615326 -0.749374,-1.973343 -1,-5.499954c-0.177216,-2.493698 0,-5.499969 0,-8.999939c0,-2.999985 0,-14.999901 0,-18.999878c0,-4.499969 -0.485458,-7.533775 0,-10.999924c0.504883,-3.604843 0.687714,-8.058983 1.5,-11.499916c0.363266,-1.538834 0.855988,-21.509041 3.499969,-20.999855c0.981949,0.18911 0,1.499985 0,1.999985c0,0.5 0,0.999992 0,1.499992c0,6.499954 -2.835251,20.050674 -7.999939,36.499748c-6.299667,20.063858 -9.875,34.231064 -11.499924,35.499756c-0.394104,0.307709 -0.270248,-1.526749 -0.5,-2.499985c-0.256866,-1.08812 -0.715347,-1.418793 -1,-2.499985c-4.971344,-18.882011 -1.24913,-21.468834 -1.499985,-24.499832c-0.041245,-0.498291 0,-1.499992 0,-1.999985c0,-0.999992 0.380295,-1.522636 -0.999985,-21.499855c-1.176331,-17.025337 -2.403946,-20.897224 -3.999985,-19.499863c-8.050812,7.048599 -23.901932,15.122383 -24.499832,15.499893c-13.906677,8.780678 -29.999786,9.499931 -38.999725,9.499931c-0.5,0 -0.999985,0 -1.499985,0c-0.5,0 -1.001251,0.035446 -1.499985,0c-10.579849,-0.751884 -32.752342,5.593025 -31.999786,-3.499969c0.082481,-0.996582 1.499992,0 1.999985,0c0.5,0 10.529907,-1.498116 23.499832,-8.999939c9.964096,-5.763245 9.449692,-7.455475 11.499924,-7.999947c5.509857,-1.463234 12.472382,5.059341 13.499908,5.499962c17.588623,7.542236 20.223251,5.984184 28.999802,12.999908c4.418579,3.532089 6.086502,5.926323 6.499954,6.499954c0.653732,0.90699 0.659058,1.295052 1.999985,2.499985c2.904678,2.610092 4.185654,5.873329 5.499969,7.999947c1.175568,1.902092 1.499985,2.999977 1.499985,3.499977c0,0.999992 0,1.999985 -1,1.999985c-1.999985,0 -4.891327,-1.284332 -8.499939,-2.499985c-3.907318,-1.316277 -8.927612,-2.731712 -14.999893,-4.499969c-3.958649,-1.152763 -12.478561,-3.095695 -18.999863,-4.499969c-4.984726,-1.073395 -10.95372,-2.707382 -14.999908,-3.499977c-3.469559,-0.679642 -5.499954,-0.999992 -6.999939,-0.999992c-1,0 -2.118469,-0.323189 -2.499985,0c-2.320618,1.965858 -1,3.999977 -1,6.499954c0,2.499985 0.246338,5.512131 0,7.999947c-0.251221,2.537086 -1.304138,5.59359 -0.5,8.999947c0.513748,2.176239 1.42215,4.690704 2.999985,8.499939c1.115692,2.693527 2.451874,5.532593 4.499969,8.499939c2.443222,3.539825 5.174683,6.192261 7.999939,7.999939c2.696777,1.725479 6.953842,2.748093 8.999939,2.999985c3.473755,0.427643 6.346786,-0.865189 9.499939,-2.999985c2.342102,-1.585693 5.36322,-5.146774 7.499954,-6.999954c1.888626,-1.637985 6.116318,-5.366577 8.999939,-7.999939c2.088562,-1.907303 3.918839,-4.418823 5.499954,-5.999954c0.790573,-0.790573 1.646439,-1.353546 1.999985,-1c1.060654,1.060654 0.887085,3.031647 1.5,4.999969c1.270096,4.078796 1.999985,5.999954 1.999985,8.999939c0,1.999985 0.482239,3.75209 -1,5.999954c-5.449554,8.26445 -11.005234,8.482346 -15.999893,9.999939c-6.506958,1.977097 -12.027924,3.311981 -15.999878,3.999969c-4.542099,0.786758 -7.07608,1.382675 -7.999954,0.999985c-1.306549,-0.541183 -1.748764,-2.96286 -1.999985,-5.499954c-0.39415,-3.980499 -0.22583,-8.063293 1,-11.999924c1.270096,-4.078796 2.987549,-26.289612 29.999786,-13.499908c14.60141,6.913437 7.308624,17.037949 7.499954,17.499878c0.541183,1.306549 3.499969,2.999985 2.499985,2.999985c-0.5,0 -0.968521,-1.066742 -19.999863,-9.999924c-21.46463,-10.075348 -24.432297,-15.748932 -23.999847,-15.999893c3.486542,-2.023331 23.904114,12.785889 58.999603,23.499832c1.97171,0.601929 3.499969,1.499985 4.499969,1.999985c0.999985,0.499985 1.5392,0.894943 2.999969,1.5c1.032928,0.427841 2.154984,0.668732 3.499985,1.499985c1.202988,0.743484 2.002762,2.327667 16.499878,6.999954c4.387497,1.414047 5.499969,2.499985 5.499969,1.999985c0,-1 -1.5,0 -1.999985,0c-0.5,0 -1.5,0 -1.999985,0c-0.5,0 -1,0 -1.5,0c-0.5,0 -6.999954,1.499985 -6.999954,1.999985l-0.499985,0l-1,0" id="svg_19" stroke-width="25" stroke="#619E73" fill="none"/>
  <path d="m99.25071,334.22406c1.499985,-0.999969 6.999947,-1.499969 7.499947,-1.499969c0.499992,0 0.999992,0 1.499985,0c0.5,0 1,0 1.499992,0c0.5,0 0.999992,0 1.499992,0c0.499992,0 0.999992,0 1.499985,0c2.499985,0 2.999985,0 3.499977,0c0.5,0 0.999992,0 1.499992,0c0.499992,0 0.999992,0 1.999985,0c0.5,0 0.999992,0 1.499992,0c0.499992,0 0.999992,0 1.499985,0c0.5,0 0.999992,0 1.499992,0c0.5,0 1.499992,0 1.999985,0c0.5,0 0.999992,0 1.499992,0c0.499992,0 0.999992,0 1.499992,0c0.499985,0 0.999985,0 1.499985,0c0.5,0 1.499985,0 1.999985,0c0.5,0 1,0 1.499985,0c0.5,0 1,0 1.5,0c0.5,0 0.999985,0 2.499985,0c0.499985,0 0.999985,0 1.499985,0c0.5,0 1,0 1.499985,0c0.5,0 1.5,0 2.499985,0c0.5,0 1,0 1.499985,0c0.5,0 1,0 1.5,0c0.5,0 0.999985,0 2.499985,0c0.499985,0 0.999985,0 1.499985,0c0.5,0 1,0 1.499985,0c0.5,0 1.585785,-1.414215 2.999985,0c0.707092,0.707092 0.5,0.999969 0.999985,0.999969c0.5,0 1,0 1.5,0c0.5,0 0.999985,0 1.499985,0c0.5,0 1,0 1.499985,0c0.5,0 2.499985,0 2.999985,0c0.5,0 1,0 1.499985,0c0.5,0 1,0 1.5,0c0.5,0 0.999985,0 1.499985,0c0.5,0 3.499969,0 4.999969,0c0.5,0 0.999985,0 1.499985,0c0.5,0 1,0 1.499985,0c0.5,0 1,0 2.999985,0c0.5,0 1,0 1.499985,0c0.5,0 1,0 1.5,0c0.499985,0 0.999985,0 1.499985,0c1.999985,0 2.499985,0 2.999985,0c0.499985,0 0.999985,0 1.499985,0c0.5,0 1,0 1.499985,0c1.5,0 1.999985,0 2.499985,0c0.5,0 1,0 1.499985,0c0.5,0 1,0 1.5,0c0.999985,0 1.499985,0 1.999985,0c0.5,0 0.999985,0 1.499985,0c0.5,0 3.999969,0 5.499969,0c0.5,0 0.999985,0 1.499985,0c0.5,0 1,0 1.499985,0c0.5,0 1,0 1.5,0c0.499985,0 0.999985,0 1.499985,0c0.5,0 1.999985,0 2.499985,0c0.5,0 0.999985,0 1.499985,0c0.5,0 1,0 1.5,0c0.499985,0 0.999985,0 1.999985,0c0.499985,0 0.999985,0 1.499985,0c0.5,0 0.999985,0 1.499985,0c0.5,0 1,0 1.5,0c0.499985,0 0.999985,0 1.499985,0c0.5,0 0.999985,0 1.499985,0c0.5,0 1,0 1.5,0c0.499985,0 0.999985,0 1.999985,0c0.499985,0 0.999985,0 1.499985,0c0.5,0 0.999985,0 1.499985,0c0.5,0 1,0 1.5,0c0.499985,0 1.499985,0 1.999985,0c0.499985,0 0.999985,0 1.499985,0c0.5,0 1,0 1.499985,0c0.5,0 1.5,0.5 1.999985,0.5c0.5,0 1,0 1.5,0c0.5,0 0.999985,0 1.499985,0c0.5,0 2.499985,0 2.999985,0c0.499985,0 0.999985,0 1.499985,0c0.5,0 1,0 1.999985,0c0.5,0 1,0 1.499985,0c0.5,0 1,0 1.5,0c0.5,0 1.999985,0 2.499985,0c0.499985,0 1,0 1.499969,0c0.5,0 1,0 1.5,0c1,0 1.5,0 2,0c0.5,0 0.999969,0 1.499969,0c0.5,0 1,0 2,0c0.5,0 1,0 1.5,0c0.499969,0 0.499969,0.5 0.999969,0.5c0.5,0 2,0 2.5,0c0.5,0 1,0 1.499969,0c0.5,0 2,0 2.5,0c0.5,0 1,0 1.5,0c0.499969,0 1.999969,0 2.999969,0c0.5,0 1.499969,0 4.499969,0c0.5,0 1,0 1.499969,0c0.5,0 1,0 1.5,0c0.5,0 1,0 2,0c0.5,0 0.999969,0 1.499969,0c0.5,0 1,0 1.5,0c0.5,0 1,0 1.5,0c0.5,0 0.999969,0 1.499969,0c0.5,0 1.5,0 2,0c0.5,0 1,0 1.5,0c0.499969,0 1.999969,0 2.499969,0c0.5,0 0.5,-1 1,-1c0.5,0 1,0 1.499969,0c1.5,0 2,0 2.5,0c0.5,0 1,0 1.499969,0c0.5,0 1.5,0 2,0c0.5,0 1,0 1.5,0c0.5,0 0.999969,0 1.499969,0c1,0 1.5,0 2,0c0.5,0 0.5,-0.499969 1,-0.499969c0.5,0 1.499969,0 1.999969,0c0.5,0 1,0 1.5,0c0.5,0 1,0 1.999969,0c0.5,0 1,0 1.5,0c0.5,0 1,0 1.5,0c0.5,0 1,0 1.499969,0c0.5,0 1,0 1.5,0c0.5,0 1.5,0 2.5,0c0.499969,0 0.499969,-0.5 0.999969,-0.5c0.5,0 1,0 1.5,0c0.5,0 1,0 1.5,0c0.499969,0 0.999969,0 1.499969,0c0.5,0 1,0 1.5,0c1,0 1.5,0 1.999969,0c0.5,0 1,0 1.5,0c0.5,0 1,0 1.5,0c0.5,0 1,0 1.499969,0c1,0 1.5,0 2,0c0.5,0 1.012909,0.160187 2,0c1.560699,-0.253265 2.499969,-0.5 3.499969,-0.5c1,0 1.499969,0 1.999969,0c0.5,0 1,0 1.5,0c0.5,0 1,0 1.5,0c0.499969,0 0.999969,0 1.499969,0c0.5,0 1,-0.5 1.5,-0.5c0.5,0 1,0 1.5,0c0.499969,0 0.499969,-0.5 0.999969,-0.5c0.5,0 1,0 1.5,0c0.5,0 0.646454,-0.146454 1,-0.5c0.353546,-0.353546 0.84671,-0.229401 1.499969,-0.5c0.461945,-0.191345 0.646454,-0.146454 1,-0.5c0.353546,-0.353546 0.5,-0.499969 0.5,-0.999969c0,-0.5 0,-1 0,-1.5c0,-0.5 0.262878,-1.074677 0,-1.5c-0.587799,-0.95105 -1,-0.999969 -1,-1.499969c0,-0.5 -0.5,-0.5 -0.5,-1c0,-0.5 0.207123,-0.792908 -0.499969,-1.5c-0.353546,-0.353546 -0.146454,-0.646454 -0.5,-1c-0.353546,-0.353546 -0.146454,-0.646423 -0.5,-0.999969c-0.353546,-0.353546 -0.146454,-0.646454 -0.5,-1c-0.353546,-0.353546 -0.646454,-0.146454 -1,-0.5c-0.353546,-0.353546 -0.146454,-0.646454 -0.5,-1c-0.353546,-0.353546 -0.146454,-0.646454 -0.5,-1c-0.353546,-0.353546 -0.146454,-1.146423 -0.5,-1.499969c-0.353546,-0.353546 -0.146423,-0.646454 -0.499969,-1c-0.353546,-0.353546 -2.385132,-3.013336 -2.5,-3.499969c-0.256866,-1.088135 -1,-2 -1.5,-2.5c-0.999969,-0.999969 -1.499969,-1.999969 -1.999969,-2.499969c-0.5,-0.5 -0.852753,-1.673065 -2,-2.499969c-0.906982,-0.653717 -1.346252,-1.593018 -1.999969,-2.5c-0.826904,-1.147278 -1.500031,-2.499939 -2.5,-3.499969c-0.499969,-0.5 -1.628235,-1.398499 -1.999969,-2c-0.831238,-1.344971 -1.806915,-2.648468 -2.999969,-3.999969c-0.739899,-0.838165 -1.5,-1.999969 -2.5,-2.999969c-1,-1 -1.209412,-1.709442 -1.999969,-2.5c-0.790558,-0.790558 -2.362,-2.111328 -4,-3.999969c-1.389862,-1.602539 -3.110077,-3.3974 -4.499939,-4.999939c-1.638,-1.888641 -3.613647,-3.892456 -5.499969,-5.999969c-2.135193,-2.385559 -4.616333,-4.366608 -7.499969,-6.999969c-1.566406,-1.43045 -4.892395,-4.113617 -6.999939,-5.999939c-2.385559,-2.135162 -5.482666,-4.023331 -7.499939,-5.499969c-3.470673,-2.540512 -6.278992,-4.038803 -8.999939,-5.999954c-1.147278,-0.826904 -1.969055,-2.039276 -4.499969,-3.999969c-1.976318,-1.531052 -5.173553,-3.644318 -7.499969,-4.999969c-2.766144,-1.611908 -4.55658,-3.417496 -7.499939,-5.499969c-2.040833,-1.443909 -4.499969,-3.499969 -6.499939,-4.999954c-2,-1.5 -4.359467,-3.65509 -5.999969,-4.999969c-1.394165,-1.142929 -3.36322,-2.646805 -5.499954,-4.499969c-1.888626,-1.638 -4.499969,-2.499985 -5.999969,-3.999969c-1.999985,-1.999985 -2.86322,-3.146805 -4.999954,-4.999969c-1.888626,-1.638 -4.890213,-2.899979 -8.999939,-5.999954c-2.822571,-2.129074 -3.080505,-2.31842 -5.499969,-3.499985c-6.241638,-3.048157 -8.035843,-4.845581 -10.499924,-5.499954c-1.528152,-0.405823 -3.499985,-1 -5.499969,-1c-1.999985,0 -3.999969,0 -5.999954,0c-1.999985,0 -2.999985,0 -4.499969,0c-1.999985,0 -3.499969,0 -4.999969,0c-1.999985,0 -4.525787,0.320358 -6.499954,0c-1.560699,-0.253265 -2.499985,-0.499985 -3.499969,-0.499985c-1,0 -2.411865,1.243118 -3.499985,1.499985c-0.486603,0.114868 -1.03804,-0.191345 -1.499985,0c-1.306549,0.541183 -1.592987,0.846252 -2.499985,1.499985c-0.573624,0.413452 -0.926346,1.086548 -1.499985,1.5c-0.906998,0.653717 -2.412201,1.048935 -2.999985,1.999985c-0.262863,0.425308 -0.846252,1.092987 -1.499985,1.999985c-1.240341,1.720886 -1.999985,1.999985 -2.999985,2.999969c-1.5,1.499985 -2.412201,1.548935 -2.999969,2.499985c-0.525726,0.850647 -0.846268,2.092987 -1.5,2.999985c-0.826889,1.147247 -1.709412,1.709427 -2.499969,2.499985c-0.790558,0.790558 -1,1.999969 -2,2.999969c-1,1 -1.586533,1.426361 -1.999985,1.999985c-0.653717,0.906982 -0.999969,1.000015 -1.999985,2c-0.5,0.499985 -1.586533,1.426346 -1.999985,1.999985c-0.653717,0.906982 -1.092987,1.346252 -1.999985,1.999985c-0.573639,0.413452 -0.999969,1.5 -1.999985,2.499985c-0.5,0.499985 -1.093002,0.846268 -1.999985,1.499985c-0.573639,0.413452 -1.346252,1.592987 -1.999985,2.499985c-0.826904,1.147263 -1.617294,1.076111 -1.999985,1.999985c-0.541199,1.306549 -2.086533,1.426346 -2.499985,1.999985c-0.653732,0.906998 -1.346252,2.092987 -1.999985,2.999985c-0.826904,1.147263 -1.346268,1.093002 -1.999985,1.999985c-0.413452,0.573624 -0.709427,1.209412 -1.5,1.999985c-0.790558,0.790558 -1.737122,1.574661 -1.999985,1.999985c-0.587769,0.95105 -1.346161,0.70546 -2.999969,2.999985c-0.653717,0.906982 -1.586548,2.426331 -2,2.999969c-0.653717,0.906998 -1.095123,1.440765 -1.999977,2.999985c-0.561165,0.96698 -0.999985,1.5 -1.999985,2.499985c-0.499992,0.499985 -1.572144,1.967056 -1.999992,2.999969c-0.605072,1.460785 -0.857063,2.605835 -1.999985,3.999969c-0.896591,1.093658 -1.673073,1.852722 -2.499985,3c-0.653709,0.906982 -1.168739,2.154968 -1.999985,3.499969c-0.371742,0.601501 -1.051689,1.453125 -1.499985,1.999969c-2.285866,2.78833 -3.999969,5.499969 -5.499962,7.499969c-1.499985,1.999969 -2.871796,4.589508 -4.999969,7.499939c-1.889717,2.58432 -3.96196,4.519897 -4.499969,5.499969c-1.402939,2.555695 -3.772652,5.292297 -5.999954,8.499939c-2.299164,3.311127 -3.648438,5.888092 -5.499962,8.499939c-2.727913,3.848145 -4.454803,5.653961 -5.499962,7.499939c-1.015717,1.793976 -1.423973,4.039825 -2.499985,5.999969c-1.402939,2.555695 -3.229362,4.735596 -3.999969,7.999939c-0.114876,0.486633 -0.748116,1.953888 -1,3.999969c-0.122185,0.992493 0,1.5 0,2c0,0.499969 0.846718,0.72937 1.499992,0.999969c0.923874,0.38269 0.999992,0.5 1.499992,0.5c0.499992,0 1.146439,-0.353546 1.499985,0c0.353554,0.353546 0.5,0.5 0.999992,0.5c0.5,0 1,0 1.499992,0c0.5,0 0.646439,0.146454 0.999992,0.5c0.353554,0.353546 1.999985,0.5 2.499985,0.5c0.5,0 0.999992,0 1.499992,0c0.499992,0 0.999992,0 1.499985,0c1.499992,0 1.999985,0 2.499985,0c0.5,0 0.999992,0 1.499992,0c0.499992,0 2.499977,0.5 2.999977,0.5c0.499992,0 0.999992,0 1.499992,0c0.499992,0 0.999992,0 2.499977,0c0.5,0 0.999992,0 1.499992,0c0.499992,0 1.499992,0 1.999985,0c0.5,0 0.999992,0 1.499992,0c0.999992,0 1.499985,0 1.999985,0c0.499992,0 0.999992,0 1.999985,0c1.499992,0 1.999985,0 2.499985,0c0.499992,0 1.999985,0 2.499985,0c4.499962,0 4.999962,0 5.499962,0c0.999992,0 1.499985,0 1.999985,0c0.499992,0 0.999992,0 1.499985,0c0.5,0 1.499992,0 1.999992,0c1.999985,0 2.499977,0 2.999977,0c0.5,0 1.013367,0.114868 1.499985,0c2.176239,-0.513733 2.499985,-1 2.999985,-1c0.5,0 0.999985,0 1.499985,0c0.5,0 1,-0.5 1.5,-0.5c0.499985,0 0.999985,0 1.499985,0c0.5,0 0.999985,0 1.499985,0c0.5,0 2.499985,0 2.999985,0c0.5,0 0.999985,0 1.499985,0c0.5,0 1,0 2.499985,0c0.5,0 1,0 1.499985,0c0.5,0 1,0 1.5,0c0.999985,0 1.499985,0 1.999985,0c0.5,0 0.999985,0 1.499985,0c0.5,0 0.5,-0.5 1,-0.5c0.499985,0 1.999985,0 2.499969,0c0.5,0 1,0 1.5,0c0.5,0 0.999985,0 1.499985,0c0.5,0 2.999985,0 3.999969,0c0.5,0 1,0 2.499985,0c1.999985,0 2.499985,0 2.999985,0c0.5,0 0.999985,0 1.499985,0c2.999985,0 3.499985,0 3.999969,0c0.5,0 1,0 1.5,0c0.499985,0 2.999969,0 3.499969,0c0.5,0 1,0 1.499985,0c0.5,0 1,0 1.5,0c0.499985,0 0.999985,0 2.999969,0c0.5,0 1,0 1.5,0c0.499985,0 0.999985,0 1.499985,0c0.5,0 1,0 1.499985,0c0.5,0 1,0 2.999985,0c0.5,0 0.999985,0 1.499985,0c0.5,0 1,0 1.5,0c0.499985,0 0.999985,0 1.499985,0c0.5,0 2.999985,0 3.499969,0c0.5,0 1,0 1.5,0c0.499985,0 0.999985,0 1.499985,0c0.5,0 2.999985,0 3.499969,0c0.5,0 1,0 1.5,0c0.499985,0 0.999985,0 1.499985,0c0.5,0 0.962891,-0.248779 3.499969,-0.5c0.497574,-0.049255 1,0 1.5,0c0.5,0 0.999985,0 1.499985,0c0.5,0 1,0 1.499985,0c2.499985,0 2.999985,0 3.499985,0c0.5,0 0.999985,0 1.499985,0c0.5,0 1,0 1.499985,0c0.5,0 1,0 2.999985,0c0.5,0 1,0 1.499985,0c0.5,0 1,0 1.5,0c0.499985,0 0.999985,0 1.499985,0c0.5,0 3.499969,0 3.999969,0c0.5,0 1,0 1.5,0c0.499985,0 0.999985,0 1.499985,0c1.499985,0 2.499985,0 3.499969,0c0.5,0 1,0 1.5,0c0.499985,0 0.999985,0 1.499985,0c0.5,0 1.499985,0 3.499969,0c0.5,0 2.999985,0 3.499985,0c0.999985,0 2.499985,0 3.999954,0c1.5,0 2,0 2.5,0c0.5,0 1,0 1.5,0c0.499969,0 0.999969,0 1.499969,0c1.5,0 2.5,0 3,0c0.499969,0 0.999969,0 1.499969,0c0.5,0 1,0 1.5,0c0.5,0 1,0 3.499969,0c0.5,0 1,0 1.5,0c0.5,0 1,0 1.499969,0c0.5,0 1,0 1.5,0c2.999969,0 4.499969,0 4.999969,0c0.5,0 1.038055,0.191345 1.5,0c0.653259,-0.270599 0.999969,-0.5 3.999969,-0.5c0.5,0 0.999969,0 1.499969,0c0.5,0 1.038055,0.191345 1.5,0c0.653259,-0.270569 3.499969,-0.499969 3.999969,-0.499969c0.5,0 1,0 1.5,0c0.5,0 1,0 1.499969,0c2,0 3,0 3.5,0c0.999969,0 1.34668,-0.229401 1.999969,-0.5c0.461945,-0.191345 3.499969,0 3.999969,0c0.5,0 1,0 1.5,0c0.5,0 1.5,0 2.499969,0c0.5,0 1,0 1.5,0c0.5,0 1.146454,0.353546 1.5,0c0.353546,-0.353546 0.5,-0.5 0.999969,-0.5c2.5,0 3.5,0 4,0c0.499969,0 1.499969,0 2.999969,0c0.5,0 1,0 1.5,0c0.499969,0 1.07608,0.38269 1.999969,0c0.65329,-0.270599 1,-0.5 1.5,-0.5c0.5,0 0.84671,-0.229401 1.499969,-0.5c0.923859,-0.38269 1.411865,-0.243134 2.5,-0.5c0.486633,-0.114868 0.911865,-0.243134 1.999969,-0.5c0.486633,-0.114868 1,0 1.5,0c0.5,0 1.5,-0.5 2,-0.5c0.499969,0 0.499969,-0.499969 0.999969,-0.499969c0.5,0 1.292908,0.707092 2,0c0.353546,-0.353546 0.5,-0.5 1,-0.5c0.5,0 0.513367,-0.385132 0.999969,-0.5c1.088135,-0.256866 1.5,-0.5 2,-0.5c0.5,0 0.513367,-0.385132 1,-0.5c1.088135,-0.256866 1.646423,-0.146454 1.999969,-0.5c0.353546,-0.353546 0.146454,-0.646454 0.5,-1c0.707092,-0.707092 0.646454,-0.646423 1,-0.999969c0.353546,-0.353546 1.229401,0.15329 1.5,-0.5c0.191345,-0.461945 0.237152,-0.574677 0.5,-1c0.587769,-0.95105 0.885101,-1.013367 0.999969,-1.5c0.256866,-1.088135 0.5,-1.499969 0.5,-1.999969c0,-0.5 0.5,-1 0.5,-1.5c0,-0.5 0,-1 0,-1.5c0,-0.5 0,-0.999969 0,-1.499969c0,-0.5 0,-1 0,-1.5c0,-0.5 0,-1 0,-2c0,-0.499969 0,-0.999969 0,-1.499969c0,-0.5 0,-1 0,-1.5c0,-0.5 0.191345,-1.038055 0,-1.5c-0.811798,-1.959808 -1.999969,-1.999969 -1.999969,-2.499969c0,-0.5 -0.346741,-1.729401 -1,-1.999969c-0.461945,-0.191345 -0.5,-0.5 -0.5,-1c0,-0.5 -0.743134,-0.411865 -1,-1.5c-0.114868,-0.486633 -0.146454,-0.646454 -0.5,-1c-0.353546,-0.353546 -0.146454,-0.646423 -0.5,-0.999969c-0.353546,-0.353546 -1.22937,-0.84671 -1.499969,-1.5c-0.191345,-0.461945 -0.308655,-1.038055 -0.5,-1.5c-0.541199,-1.306549 -1.5,-1.499969 -1.5,-1.999969c0,-0.5 -0.146454,-0.646454 -0.5,-1c-0.353546,-0.353546 -1.243103,-0.411896 -1.499969,-1.5c-0.114868,-0.486633 -0.146454,-0.646454 -0.5,-1c-0.353546,-0.353546 -0.308655,-0.538025 -0.5,-0.999969c-0.270599,-0.65329 -0.646454,-1.146454 -1,-1.5c-0.353546,-0.353546 -0.646454,-0.146454 -1,-0.5c-0.353546,-0.353546 -0.586548,-0.926361 -1,-1.5c-0.653687,-0.906952 -0.646423,-1.146423 -0.999969,-1.499969c-0.353546,-0.353546 -0.146454,-0.646454 -0.5,-1c-0.353546,-0.353546 -0.958801,-0.193451 -1.5,-1.5c-0.191345,-0.461914 -0.146454,-0.646423 -0.5,-0.999969c-0.353546,-0.353546 -0.308655,-0.538055 -0.5,-1c-0.541168,-1.306549 -1.146423,-1.646454 -1.499969,-2c-0.353546,-0.353546 -0.646454,-0.146454 -1,-0.5c-0.353546,-0.353546 -1.019562,-2.48114 -1.5,-2.999969c-3.13208,-3.382263 -3.276367,-4.052765 -3.499969,-4.499969c-1.118011,-2.236053 -2.499969,-1.5 -2.499969,-1.999969c0,-0.5 -0.646454,-0.146454 -1,-0.5c-0.353546,-0.353546 -0.118317,-0.528137 -1,-1c-1.589447,-0.850647 -1.646423,-1.146454 -1.999969,-1.5c-0.353546,-0.353546 -0.5,-0.5 -0.5,-1c0,-0.499969 -0.040161,-1.188171 -2,-1.999969c-0.461945,-0.191345 -0.146454,-0.646454 -0.5,-1c-0.353546,-0.353546 -1,0 -1,-0.5c0,-0.5 -0.72937,-0.34671 -0.999969,-1c-0.191345,-0.461914 -0.146454,-0.646423 -0.5,-0.999969c-0.353546,-0.353546 -0.646454,-0.146454 -1,-0.5c-0.353546,-0.353546 -0.538055,-0.308655 -1,-0.5c-2.613098,-1.082382 -2.038025,-2.30864 -2.499969,-2.499985c-0.65329,-0.270599 -1,-0.5 -1,-1c0,-0.499985 -1.149353,-0.410522 -2,-1.999985c-0.235931,-0.440826 -0.34668,-0.729385 -0.999969,-0.999985c-0.461945,-0.191345 -0.34671,-0.729401 -1,-1c-0.461945,-0.191345 -2.146423,-1.146454 -2.499969,-1.499985c-0.353546,-0.353546 -0.146454,-0.646454 -0.5,-1c-0.353546,-0.353546 -0.525665,-0.341873 -1,-0.499985c-2.371704,-0.790573 -2.538055,-1.808655 -2.999969,-1.999985c-0.65329,-0.270599 -0.528198,-0.834503 -1,-1c-3.021088,-1.059723 -2.84671,-2.729385 -3.499969,-2.999985c-0.461945,-0.191345 -0.776398,-0.05278 -1,-0.499985c-1.118042,-2.236069 -3,-2.5 -4.499969,-3.499985c-1.5,-1 -3.105835,-1.857056 -4.499969,-2.999969c-1.640503,-1.344894 -2.070923,-1.380707 -5.499969,-3.499985c-3.067047,-1.895538 -4.563507,-0.962936 -5.999969,-3.499969c-0.246338,-0.435104 -2.953247,-2.071915 -5.999939,-3.999969c-2.463593,-1.559052 -5.371368,-3.672272 -7.999939,-5.499969c-2.393692,-1.664383 -4.388123,-3.148453 -6.999969,-4.999969c-3.848129,-2.727921 -7.312592,-4.706772 -9.499924,-6.499954c-2.788315,-2.285858 -7.253647,-3.854431 -9.999939,-5.499954c-3.266388,-1.957169 -7.940628,-3.646729 -11.499924,-4.999969c-4.433746,-1.685699 -8.499939,-2.499985 -11.499908,-3.499969c-2.999985,-1 -6.499954,-1.5 -10.499939,-1.5c-3.499969,0 -7.999939,-0.5 -12.999908,-0.5c-4.999954,0 -10.532761,-0.600143 -15.999878,0c-4.582214,0.503006 -8.570221,2.280609 -11.999924,3.499985c-3.587845,1.275604 -7.432892,3.604416 -10.499924,5.499954c-3.429062,2.119278 -6.617294,4.887054 -9.499939,7.999954c-3.132095,3.382263 -6.109009,6.424561 -8.499939,9.999924c-2.622078,3.921021 -4.60022,6.919174 -6.999954,9.999939c-4.1791,5.365112 -7.090729,10.44136 -8.999939,13.499908c-3.678154,5.89241 -5.071899,8.453217 -6.999947,11.499908c-1.559044,2.463593 -2.846252,5.592987 -3.499977,6.499969c-1.240341,1.720886 -2.789833,4.0784 -3.999977,6.999939c-1.283546,3.098755 -3.541832,5.975311 -4.999962,8.499939c-2.574615,4.457703 -3.450706,6.002411 -3.499977,6.499969c-0.251221,2.537079 -1.696754,2.095062 -3.499977,5.999939c-0.864296,1.871613 -1.146439,2.146454 -1.499985,2.5c-0.353554,0.353546 -0.000008,1 -0.5,1.499969c-0.500008,0.5 -0.237137,1.074677 -0.5,1.5c-0.587784,0.95105 -0.548935,1.412201 -1.499985,2c-0.425323,0.262878 -0.146469,0.646423 -0.5,0.999969c-0.353546,0.353546 -0.743118,0.411865 -0.999992,1.5c-0.114876,0.486633 -0.146439,0.646454 -0.499992,1c-0.353554,0.353546 -0.385124,0.513367 -0.5,1c-0.256866,1.088104 -0.646439,1.146423 -0.999992,1.499969c-0.353554,0.353546 0.451057,1.412201 -0.5,2c-0.425316,0.262848 -0.499992,0.5 -0.499992,1c0,0.5 -0.419914,0.50647 -0.5,0.999969c-0.253265,1.56073 -0.999992,1.5 -0.999992,2c0,0.5 -0.385117,0.513367 -0.499992,1c-0.256874,1.088104 -0.646446,1.146423 -0.999992,1.499969c-0.353554,0.353546 -0.270248,0.526764 -0.5,1.5c-0.256866,1.088135 -0.646439,1.146454 -0.999992,1.5c-0.353554,0.353546 -0.5,1.499969 -0.5,1.999969c0,0.5 -0.499992,0.5 -0.499992,1c0,0.5 -0.646446,1.146454 -0.999992,1.5c-0.353554,0.353546 -0.229401,0.84668 -0.5,1.499969c-0.382683,0.923889 -0.499992,1.5 -0.499992,2c0,0.5 -0.729401,1.34671 -0.999992,1.999969c-0.191345,0.461945 -0.229401,0.84671 -0.5,1.5c-0.191345,0.461945 0.114876,1.013367 0,1.5c-0.256866,1.088135 -0.499992,1.499969 -0.499992,1.999969c0,0.5 0,1 0,1.5c0,0.5 0,1 0,1.5c0,0.5 0,0.999969 0,1.499969c0,0.5 0.808655,0.538055 0.999992,1c0.270592,0.65329 0.646439,0.646454 0.999992,1c0.353554,0.353546 0.308647,0.538055 0.499992,1c0.270599,0.653259 1.146439,0.646423 1.499992,0.999969c0.353554,0.353546 0.34671,0.729401 0.999992,1c0.461937,0.191345 0.5,0.5 0.999992,0.5c0.5,0 0.646439,0.146454 0.999992,0.5c0.353554,0.353546 0.999992,0.5 1.499992,0.5c0.499992,0 0.646439,0.146454 0.999992,0.5c0.353546,0.353546 0.953888,0.748108 2.999977,0.999969c0.496254,0.061096 0.646439,0.146454 0.999992,0.5c0.353554,0.353546 1.009018,-0.094543 1.499992,0c2.643982,0.509186 3.146423,0.646454 3.499977,1c0.353554,0.353546 0.499992,0.5 0.999992,0.5c0.499992,0 1.999985,0.5 2.499985,0.5c0.499992,0 1.146439,-0.353546 1.499985,0c0.353554,0.353546 0.580254,-0.18927 3.499977,0.5c1.08812,0.256866 2.038048,0.308655 2.499985,0.5c0.653275,0.270599 2.526733,0.270264 3.499977,0.5c1.088112,0.256866 1.499985,0.499969 2.499977,0.499969c0.5,0 3.015205,0.403076 6.499954,1c2.512894,0.43045 3.499977,0.5 3.999977,0.5c0.499992,0 0.999992,0 1.999985,0c0.5,0 0.999992,0 1.499992,0c3.999969,0 4.499969,0 8.499939,0c0.5,0 0.999992,0 1.499992,0c0.499992,0 0.999992,0 1.499985,0c0.5,0 0.999992,0 1.499992,0c0.5,0 0.999985,0 1.499985,0c2.499985,0 2.999985,0 3.999969,0c1,0 1.5,0 2.999985,0c1.999985,0 2.499985,0 2.999985,0c0.5,0 0.999985,0 1.999985,0c1.499985,0 1.999985,0 2.499985,0c0.499985,0 0.999985,0 1.499985,0c1.499985,0 2.999985,0 3.499969,0c1,0 3.499985,0 4.999969,0c0.5,0 1,0 1.499985,0c0.5,0 1,0 1.5,0c1.999985,0 3.499969,0 3.999969,0c0.5,0 1,0 1.499985,0c0.5,0 2.999985,-1 3.999985,-1c0.499985,0 0.999985,0 1.999985,0c0.999985,0 3.999969,0 4.499969,0c0.499985,0 0.999985,0 1.499985,0c0.5,0 1.499985,0 3.999969,0c0.5,0 1,0 1.499985,0c0.5,0 1,0 1.5,0c0.999985,0 3.999969,0 10.499924,0c1.499985,0 4.499969,0 5.499954,0c0.5,0 2.499985,0 3.499985,0c0.5,0 0.999985,0 1.499985,0c0.5,0 1,0 3.499985,0c0.499985,0 0.999985,0 1.499985,0c0.5,0 0.999985,0 1.999985,0c0.5,0 1,0 1.499985,0c0.5,0 1,0 1.5,0c0.499985,0 0.646439,-0.146454 0.999985,-0.5c2.121307,-2.121307 4.499969,0 4.999969,0c0.5,0 0.999985,0 1.499985,0c0.5,0 3.499985,0 4.499969,0c0.5,0 1,0 1.5,0c0.499985,0 3.999969,-0.499969 4.499954,-0.499969c0.5,0 1.001709,0.041229 1.5,0c3.030991,-0.250854 3.499969,-0.5 3.999969,-0.5c0.5,0 1,0 1.499985,0c2.499985,0 2.999985,0 3.499985,0c0.5,0 0.999985,0 1.499985,0c0.5,0 1.499985,0 3.499969,0c0.5,0 1,0 1.5,0c0.5,0 3.999969,0 4.499969,0c0.5,0 0.999985,0 1.499985,0c0.5,0 1,0 4.499969,0c1,0 1.5,0 2,0c0.499969,0 0.999969,0 3.999969,0c0.5,0 0.646423,-0.146454 0.999969,-0.5c0.353546,-0.353546 1,0 1.5,0c0.5,0 1,0 1.5,0c2.499969,0 2.999969,0 3.499969,0c0.5,0 1,0 1.5,0c0.5,0 0.999969,0 1.499969,0c0.5,0 3.999969,0 4.499969,0c0.5,0 1,0 1.5,0c0.5,0 1,0 1.5,0c2.999969,0 3.499969,0 3.999969,0c0.5,0 0.999969,0 1.999969,0c0.5,0 1,0 3.499969,0c0.5,0 1,0 1.5,0c0.5,0 1,0 1.5,0c2.999969,0 3.499969,0 3.999969,0c2.999969,0 5.999939,-0.5 6.499939,-0.5c0.5,0 1,0 3.999969,0c0.5,0 1,0 1.5,0c0.5,0 2.5,0 2.999969,0c0.5,0 1,0 1.5,0c0.5,0 1,0 3.499969,0c0.5,0 1,0 1.5,0c0.5,0 2.999969,0 3.499969,0c0.5,0 1,0 1.5,0c0.5,0 1,0 3.499969,0c0.5,0 1,0 1.5,0c0.5,0 2.999969,0 3.999969,0c0.5,0 1,0 2.999969,0c0.5,0 1,0 1.5,0c0.5,0 1.999969,0 2.499969,0c0.5,0 0.84671,-0.229401 1.5,-0.5c0.461945,-0.191345 1.999969,0 2.499969,0c0.5,0 1,0 1.5,0c2.499969,0 2.999969,0 3.499969,0c0.5,0 2.5,0 2.999969,0c0.5,0 1,0 1.5,0c2,0 2.5,0 2.999969,0c0.5,0 1.5,-0.5 2,-0.5c0.5,0 1.04895,-0.912201 2,-1.5c0.425293,-0.262848 0.499969,-0.499969 0.499969,-0.999969c0,-1 0.5,-1.5 0.5,-2.5c0,-0.5 0,-1 0,-1.499969c0,-1 0,-1.5 0,-2c0,-0.5 0,-1 0,-2.999969c0,-0.5 0,-1 0,-1.5c0,-0.5 0,-3.499969 0,-3.999969c0,-0.5 0,-1 0,-2.999969c0,-0.5 0,-1 0,-1.5c0,-0.5 0,-1 0,-2.999969c0,-0.5 0,-1 0,-1.5c0,-0.5 -0.999969,-2 -0.999969,-2.499969c0,-0.5 0,-1 0,-1.5c0,-1.5 0,-2 0,-2.5c0,-0.499969 0,-1.499969 0,-1.999969c0,-0.5 -0.246735,-0.93927 -0.5,-2.499969c-0.080078,-0.49353 0,-1 0,-1.5c0,-1 0.353546,-1.646454 0,-2c-0.353546,-0.353546 -0.746735,-0.43927 -1,-1.999969c-0.080078,-0.49353 -0.246735,-0.93927 -0.5,-2.5c-0.080078,-0.49353 -0.243134,-0.911835 -0.5,-1.999969c-0.114868,-0.486633 0.153717,-1.093018 -0.5,-2c-0.413452,-0.573639 0.207092,-1.292877 -0.5,-1.999969c-0.353546,-0.353546 -0.5,-0.5 -0.5,-1c0,-0.5 0.207123,-0.792908 -0.499969,-1.5c-0.353546,-0.353546 -0.743134,-0.411865 -1,-1.499969c-0.114868,-0.486633 -0.5,-1 -0.5,-1.5c0,-0.5 -0.646454,-0.646454 -1,-1c-0.353546,-0.353546 0.353546,-1.146423 0,-1.499969c-0.353546,-0.353546 -0.355103,-0.521454 -0.5,-1c-0.52243,-1.725433 -1.499969,-1.5 -1.499969,-2c0,-1 -0.385132,-1.013367 -0.5,-1.499969c-0.256866,-1.088135 -0.646454,-1.146454 -1,-1.5c-0.353546,-0.353546 -0.146454,-0.646454 -0.5,-1c-0.353546,-0.353546 -0.146454,-0.646454 -0.5,-1c-0.353546,-0.353546 -0.229401,-0.84668 -0.5,-1.499969c-0.191345,-0.461945 -0.746704,-0.43927 -0.999969,-2c-0.080078,-0.49353 -0.5,-0.5 -0.5,-1c0,-0.999969 -0.308655,-1.038025 -0.5,-1.499969c-0.270599,-0.65329 -0.146454,-1.146454 -0.5,-1.5c-0.353546,-0.353546 -0.646454,-0.646454 -1,-1c-0.353546,-0.353546 -0.243134,-0.911865 -0.5,-1.999969c-0.114868,-0.486633 -0.146454,-0.646454 -0.5,-1c-0.353546,-0.353546 -0.538055,-0.808655 -0.999969,-1c-0.65329,-0.270599 -0.5,-1 -0.5,-1.5c0,-0.499969 -0.646454,-1.646423 -1,-1.999969c-0.353546,-0.353546 -0.5,-0.5 -0.5,-1c0,-0.499985 -1.074677,-1.737122 -1.5,-1.999985c-0.95105,-0.587769 -1.072113,-1.467056 -1.499969,-2.499985c-0.605072,-1.46077 -1.229401,-1.846695 -1.5,-2.499969c-0.191345,-0.461945 -0.173096,-0.852737 -1,-2c-0.653717,-0.906982 -1.146423,-1.146454 -1.499969,-1.499985c-0.353546,-0.353546 0,-0.999985 -1.5,-2.499985c-0.5,-0.5 -0.729401,-0.84671 -1,-1.499985c-0.191345,-0.461945 -0.905731,-0.567337 -1.999969,-1.999985c-0.959747,-1.256546 -0.962006,-1.519928 -1.5,-2.499985c-1.402954,-2.55571 -2.146423,-2.646454 -2.499969,-2.999985c-0.353546,-0.353546 -0.410553,-1.149338 -2,-1.999985c-0.440826,-0.235931 -0.646454,-0.146454 -1,-0.5c-0.353546,-0.353546 -0.953156,-1.051697 -1.499969,-1.499985c-1.394135,-1.142944 -2,-0.999985 -2.5,-1.499985c-0.5,-0.5 -1.412201,-0.548965 -1.999969,-1.5c-0.262848,-0.425308 -0.646454,-0.146439 -1,-0.499985c-0.353546,-0.353546 -0.646454,-0.146454 -1,-0.5c-0.353546,-0.353546 -1.105835,-0.857071 -2.499969,-1.999985c-0.546844,-0.448303 -1.146454,-0.146454 -1.5,-0.5c-0.353546,-0.353546 -1.881958,0.236053 -2.999969,-1.999985c-0.223602,-0.44722 -0.426361,-0.586548 -1,-1c-0.906982,-0.653717 -2.426361,-1.586533 -3,-1.999985c-1.813965,-1.307434 -4.201965,-2.20578 -6.499939,-3.999969c-1.672028,-1.305481 -3.737091,-2.574661 -3.999969,-2.999985c-1.175568,-1.9021 -2.646423,-1.646439 -2.999969,-1.999985c-0.353546,-0.353546 -1,-0.499985 -1.5,-0.499985c-0.5,0 -2.538055,-1.30867 -2.999969,-1.5c-0.653259,-0.270584 -0.646454,-0.646439 -1,-0.999985c-0.707092,-0.707108 -2.646454,-1.146454 -3,-1.5c-0.353546,-0.353546 -1.032959,-0.938812 -1.999969,-1.499985c-1.559235,-0.904846 -2.038055,-0.80864 -2.5,-0.999985c-1.306549,-0.541199 -2.499969,-2 -2.999969,-2c-0.5,0 -0.566498,-0.284744 -2.499969,-0.999985c-1.048584,-0.387894 -1.146454,-0.646454 -1.5,-1c-0.353546,-0.353546 -0.513367,-0.385101 -1,-0.499985c-1.088104,-0.256866 -2.231262,0.124924 -3.499969,-1.5c-0.307709,-0.394089 -0.518158,-0.366516 -1,-0.499985c-2.809662,-0.778244 -3.146423,-1.646454 -3.499969,-2c-0.353546,-0.353546 -2.82373,-0.986237 -4.999969,-1.499985c-0.486633,-0.114883 -0.5,-0.5 -1.499969,-0.5c-1,0 -1.5,-0.499985 -4.499985,-1.499985c-1.499985,-0.5 -1.876541,-0.666351 -2.499985,-1c-2.247818,-1.202988 -3.013351,-0.885101 -3.499969,-0.999985c-1.08812,-0.256866 -2.53804,-0.808655 -2.999985,-1c-0.653259,-0.270584 -1.34671,-0.729385 -1.999985,-0.999985c-0.461945,-0.191345 -1.03804,-0.308655 -1.499985,-0.5c-0.653275,-0.270599 -1.34671,-0.729401 -1.999985,-0.999985c-0.461945,-0.191345 -0.884674,-0.151611 -1.5,-0.5c-1.793945,-1.015717 -2.114166,-0.42598 -3.499969,-1c-0.653275,-0.270599 -2.012894,-0.839798 -2.999985,-0.999985c-1.560715,-0.253265 -1.999985,-0.5 -2.499969,-0.5c-0.5,0 -1.5,-0.5 -2.499985,-0.5c-0.5,0 -0.646454,-0.146454 -1,-0.5c-0.353546,-0.353546 -1.999985,-0.499985 -2.499985,-0.499985c-0.999985,0 -1.146439,-0.146454 -1.499985,-0.5c-0.353546,-0.353546 -0.646454,-0.146454 -1,-0.5c-0.353546,-0.353546 -0.999985,0 -1.499985,0c-0.5,0 -0.911865,-0.243134 -1.999985,-0.5c-0.486618,-0.114883 -0.5,-0.5 -1,-0.5c-0.499985,0 -1.146439,0.353546 -1.499985,0c-0.353546,-0.353546 -0.538055,-0.308655 -0.999985,-0.499985c-0.653275,-0.270599 -1.038055,-0.308655 -1.5,-0.5c-0.653275,-0.270599 -0.999985,-0.5 -1.499985,-0.5c-0.5,0 -0.5,-0.5 -1.999985,-0.5c-0.5,0 -0.646454,-0.146439 -1,-0.499985c-0.353546,-0.353546 -1.999985,-0.5 -2.499985,-0.5c-0.499985,0 -2.03804,-0.30867 -2.499969,-0.5c-0.653275,-0.270599 -1.038055,-0.308655 -1.5,-0.5c-0.653275,-0.270599 -1.646439,-0.646439 -1.999985,-0.999985c-0.353546,-0.353546 -0.999985,0 -1.499985,0c-0.5,0 -1.5,-0.5 -1.999985,-0.5c-0.5,0 -1,0 -1.5,0c-0.499985,0 -0.999985,0 -1.499985,0c-0.999985,0 -1.499985,0 -1.999985,0c-0.5,0 -1.292892,-0.707092 -1.999985,0c-0.707092,0.707092 0,1.499985 -0.5,1.499985c-0.5,0 -0.646439,0.646454 -0.999985,1c-0.353546,0.353546 -0.513382,0.385132 -1,0.5c-1.08812,0.256866 -2.785538,1.339706 -4.999969,2.499969c-1.400528,0.73381 -3.616974,1.246475 -5.999954,2.499985c-3.190979,1.678543 -6.204849,2.677856 -9.499939,4.999969c-3.768066,2.655441 -6.740341,5.740356 -9.999924,8.999939c-3.259583,3.259583 -6.241638,6.741623 -9.999939,10.499924c-3.758301,3.758286 -6.645569,8.251953 -10.999924,13.999908c-2.783554,3.674423 -5.999954,7.999939 -9.499931,12.999908c-3.499977,4.999969 -6.199104,9.180771 -8.999939,13.499908c-2.720413,4.195114 -5.694069,7.888489 -8.499939,12.999893c-0.538002,0.980072 -2.294189,3.338593 -8.499939,14.999908c-1.050468,1.973969 -1.146439,2.146454 -1.499992,2.5c-0.353531,0.353546 -0.499992,0.499969 -0.499992,0.999969c0,0.5 -0.999992,1.5 -0.999992,2c0,0.5 -0.346283,1.092987 -0.999992,1.999969c-0.413452,0.573639 -0.419907,1.00647 -0.5,1.5c-0.253273,1.56073 -0.919899,1.50647 -0.999992,2c-0.253273,1.560699 -0.999992,1.499969 -0.999992,1.999969c0,0.5 -0.5,1.5 -0.5,2c0,0.5 -0.499992,1.499969 -0.499992,1.999969c0,0.5 -0.5,1.5 -0.5,2c0,0.5 -0.146446,1.646423 -0.499992,1.999969c-0.353554,0.353546 0,1 0,1.5c0,0.5 -0.5,0.5 -0.5,1c0,1 0,1.499969 0,1.999969c0,0.5 0,1 0,1.5c0,0.5 -0.191345,1.038055 0,1.5c0.541191,1.306549 0.217308,2.07547 1.499992,2.999969c0.405617,0.292358 -0.282677,1.07547 0.999992,1.999969c0.405617,0.292358 0.385117,0.513367 0.499992,1c0.256874,1.088135 0.999992,1 0.999992,1.5c0,0.5 0.5,0.5 0.5,1c0,0.5 0.574677,1.237122 0.999992,1.499969c0.951057,0.587799 0.808647,2.538055 0.999992,3c0.270599,0.65329 0.999992,0.999969 0.999992,1.499969c0,0.5 -0.282692,1.0755 0.999992,2c0.405617,0.292358 0.729401,0.34671 0.999992,1c0.191338,0.461945 0.385132,0.513367 0.5,0.999969c0.256874,1.088135 0.999992,1 0.999992,1.5c0,0.5 0.646446,0.646454 0.999992,1c0.353554,0.353546 0.426361,0.586548 0.999992,1c0.90699,0.653717 0.953888,1.248077 2.999985,1.499969c0.496246,0.061096 0.513367,0.385132 0.999992,0.5c2.176239,0.513733 2.646423,1.146454 2.999977,1.5c0.7071,0.707092 3.146423,1.146454 3.499977,1.5c0.353546,0.353546 2.462875,1.248749 4.999962,1.499969c0.497566,0.049255 1.519325,0.222595 3.499977,0.5c3.604851,0.504883 3.939247,1.246735 5.499962,1.5c1.974159,0.320374 4.999962,0.5 5.499962,0.5c0.5,0 0.961166,0.136719 2.499985,0.499969c3.440933,0.812256 3.981277,0.749695 8.999939,1c0.499374,0.024902 1.499985,0 1.999985,0c2.499985,0 5.146408,0.646454 5.499954,1c0.707108,0.707092 1.962891,0.248779 4.499969,0.5c1.99025,0.197083 2.999985,0 3.499985,0c4.499969,0 5.510178,0.252563 8.499939,0.5c3.031006,0.250854 3.499969,0.5 4.499969,0.5c0.5,0 1.968964,0.249146 4.999969,0.5c0.996582,0.082489 2.503845,-0.124268 4.499969,0c4.0233,0.250458 4.999954,0.499969 7.999939,0.499969c1.999985,0 2.499985,0 2.999985,0c0.499985,0 1.001511,-0.055298 1.999985,0c4.520737,0.250397 4.999954,0.5 5.999954,0.5c0.5,0 1,0 4.999969,0c2.499985,0 2.999969,0 3.999969,0c0.5,0 1.999985,0 2.499985,0c0.5,0 0.999985,0 2.999969,0c3.499985,0 6.526184,0.427643 9.999939,0c4.092178,-0.503754 8.510162,-0.752533 11.499924,-0.999969c3.030991,-0.250854 5.943619,-1.188354 8.999939,-2c2.464066,-0.654388 5.522293,-0.880676 8.499939,-1.5c2.018341,-0.4198 4.968948,-1.249115 7.999954,-1.499969c2.989746,-0.247437 6.48703,-1.06955 8.999939,-1.5c3.484741,-0.596924 6.012543,-0.940674 8.499939,-1.5c2.011292,-0.452271 5.008392,-0.95166 7.999939,-1.499969c2.507721,-0.459625 4.499969,-1.5 6.999939,-2c2.5,-0.5 4.571075,-1.18045 7.499969,-1.999969c2.592957,-0.725525 4.499939,-1.5 6.499939,-2c2,-0.5 4.499969,-1.499969 6.499969,-1.999969c1.999969,-0.499969 6.039154,-2.394928 7.499939,-3c1.032928,-0.427856 3.499969,-1.499969 4.499969,-1.999969c1,-0.5 2.154968,-0.668732 3.499969,-1.5c0.601501,-0.371735 1.574677,-1.237122 2,-1.5c0.951019,-0.587769 0.999969,-3.999969 0.999969,-6.499939c0,-2.999969 0.000031,-6.499969 -1.499969,-11.499939c-1.499969,-4.999939 -2.68631,-8.60498 -4.499969,-13.499878c-1.710938,-4.617615 -3.462006,-9.516449 -4.999969,-12.999939c-2.440063,-5.526794 -5.406036,-10.538513 -7.499939,-15.499878c-1.914764,-4.536896 -3.684387,-7.632965 -5.499969,-11.499924c-1.713196,-3.648941 -3.873169,-6.580551 -5.499969,-8.999939c-1.394958,-2.0746 -2.940735,-3.595108 -4.499969,-4.499969c-2.90097,-1.683502 -7.024841,-3.411484 -12.499908,-4.999954c-6.531372,-1.894928 -12.977325,-3.109497 -19.999878,-4.499969c-5.483643,-1.08577 -10.999908,-1.999985 -16.499878,-2.999985c-5.499954,-0.999985 -9.499924,-1.499985 -13.999893,-2.499985c-4.499969,-1 -8.464874,-1.173431 -12.999908,-1.999985c-3.478226,-0.633942 -7.006012,-0.959335 -10.499939,-1.499985c-3.005585,-0.465088 -5.999954,-1 -9.999924,-1c-4.499969,0 -4.999969,0 -8.999939,0c-2.999985,0 -6.537369,0.759796 -10.499924,1.499985c-4.052979,0.75708 -8.642166,0.860962 -14.499908,2.499985c-5.185944,1.45105 -11.711594,5.714096 -14.499893,7.999954c-3.280991,2.689758 -3.891739,3.680161 -7.499954,8.499939c-2.826859,3.776062 -5.28537,7.82222 -7.999939,12.499908c-2.805847,4.834961 -4.891937,10.555405 -7.499954,15.499893c-2.401634,4.553223 -3.716408,6.901154 -4.999962,9.999939c-0.605064,1.460754 -1.499985,3.999969 -2.499985,5.499969c-0.999985,1.499969 -1.668739,3.654968 -2.499977,4.999939c-0.7435,1.203003 -1.499985,2.5 -2.499985,4c-0.999985,1.499969 -1.805321,3.07959 -2.499985,4.499939c-0.792053,1.619446 -1.34626,3.093018 -1.999985,4c-0.826889,1.147247 -1.346268,2.592987 -1.999985,3.499969c-0.826897,1.147278 -1.499992,2.499969 -1.999985,3.999969c-0.5,1.5 -1.39492,2.539185 -1.999992,3.999969c-0.427849,1.032928 -0.729393,1.34671 -0.999992,2c-0.382675,0.923859 -0.651604,2.384644 -0.999992,2.999969c-1.015709,1.793945 -0.743118,2.911835 -0.999992,3.999969c-0.229752,0.973236 0,1.999969 0,2.999969c0,0.5 0,1 0,1.5c0,0.5 0.84671,1.229401 1.499992,1.5c0.461929,0.191345 0.5429,0.710175 1.499985,0.999969c1.725418,0.52243 2.999985,1.5 4.499969,2c1.499992,0.5 3.925774,1.497528 8.999939,1.999969c2.985374,0.295593 3.999977,0 4.499969,0c2.999977,0 7.499947,0 9.499931,0c2.999985,0 10.001648,-0.041229 10.499924,0c3.031006,0.250854 3.499985,0.5 3.999985,0.5c2.999969,0 3.499969,0 3.999969,0c0.5,0 1.066864,-0.574371 3.499969,0c1.08812,0.256866 1.5,0.5 2.499985,0.5c2.499985,0 4.46286,0.248779 6.999954,0.5c0.497574,0.049255 2.499985,0 4.999969,0c0.999985,0 1.499985,0 3.499969,0c2.999985,0 5.012131,0.253662 7.499954,0.5c2.537094,0.251221 4.999954,0.5 8.499939,0.5c3.999969,0 5.499954,0.5 6.499954,0.5c0.5,0 1.911865,0.243134 2.999985,0.5c0.486603,0.114868 3.96286,0.248779 6.499954,0.5c0.497559,0.049255 0.999985,0 1.499985,0c0.5,0 0.999985,0 1.499985,0c1,0 4.468948,0.249115 7.499954,0.499969c2.49147,0.206177 4.968948,0.249146 7.999939,0.5c3.986343,0.329926 6.999954,0 9.499939,0c2.999985,0 3.499969,0 8.499939,0c2.499985,0 4.953857,0.248108 6.999954,0.5c1.488739,0.183289 2.499985,0 7.499939,0c3.499969,0 4.499969,0 7.499969,0c0.499969,0 0.999969,0 1.499969,0c3,0 3.499969,0 3.999969,0c0.5,0 3.999969,0 4.499969,0c0.5,0 3.499969,0 3.999969,0c0.5,0 1,0 1.5,0c2.999969,0 3.499969,0 3.999969,0c0.5,0 1,0 3.999969,0c0.5,0 1,0 1.5,0c0.5,0 2.999969,0 3.999969,0c0.5,0 1,0 1.5,0c2.999969,0 4.499969,0 6.499939,0c0.5,0 1,0 2.5,0c0.499969,0 0.999969,0 1.999969,0c0.5,0 1,0 2.999969,0c0.5,0 1,0 3,0c0.5,0 0.823761,-0.486267 2.999969,-1c0.486633,-0.114868 1.00647,0.080078 1.5,0c1.560699,-0.253265 1.999969,-0.499969 3.499969,-0.499969c0.5,0 1,0 2.499969,0c1,0 3.5,0 4,0c1.499969,0 1.999969,0 2.999969,0l0.5,0" id="svg_10" fill-opacity="null" stroke-opacity="null" stroke-width="25" stroke="#000" fill="none"/>
  <path d="m258.249603,198.225006c0.5,-1.499985 0.919922,-3.006424 1,-3.499969c0.506531,-3.121429 1.478027,-4.852005 2.499969,-8.999939c0.964325,-3.914063 0.727203,-5.514877 1,-7.999939c0.502991,-4.582214 1.749603,-8.479172 2,-12.999908c0.055298,-0.998474 0.729401,-5.34671 0.999969,-5.999969c1.53067,-3.695511 0.334106,-7.504532 0.5,-10.499924c0.250397,-4.520737 0.5,-5.999954 1,-8.999939c0.5,-2.999985 1,-5.999954 1,-8.999939c0,-5.999954 0.049744,-6.99601 0.5,-12.999908c0.562134,-7.495544 0.046356,-9.018677 0.5,-14.499901c0.250854,-3.030998 0.61203,-4.983429 0.999969,-7.999939c0.704437,-5.477531 1.381348,-9.525146 2.5,-14.499901c0.904572,-4.022636 1.270264,-5.526711 1.5,-6.499954c0.513733,-2.176231 1.746704,-3.939255 1.999969,-5.499962c0.240265,-1.480621 0.5,-2.499985 0.5,-2.999985c0,-0.999992 0.353546,-2.146431 0,-2.499981c-0.707092,-0.707108 -1.5,0 -2,0c-0.499969,0 -0.999969,0 -2.999969,0c-0.5,0 -3.999969,-0.499996 -5.999969,-0.499996c-2.999969,0 -12.48819,-0.749874 -20.499847,-0.999992c-2.498764,-0.078011 -10.005646,-0.179184 -18.999863,-0.499996c-7.013321,-0.250156 -17.001083,-0.366135 -24.499832,-0.499996c-14.006607,-0.250038 -25.499832,-0.499996 -35.999756,-0.499996c-45.99968,0 -61.999565,0 -69.499519,0c-2.499977,0 -2.499977,0.999992 -2.499977,1.499989c0,0.499996 0,0.999992 0,1.499989c0,0.499996 8.508446,28.497257 9.999931,33.499767c8.04586,26.986168 11.745674,33.816978 13.499901,58.999596c1.250847,17.95636 -0.409195,30.691345 1.499992,37.499741c1.02813,3.666428 1.846268,5.092972 2.499985,5.999954c0.826904,1.147263 2.243111,3.411865 2.499977,4.499969c0.114876,0.486618 0.194542,3.518723 0.5,5.999954c0.251884,2.046097 0.999992,2.999985 0.999992,3.499985l0.5,0l0,0.5" id="svg_14" fill-opacity="null" stroke-opacity="null" stroke-width="25" stroke="#000" fill="none"/>
  <path d="m369.74884,78.225845c0,0.999992 0.191345,1.538048 0,1.999985c-0.541199,1.306557 -1.61731,2.076103 -2,2.999977c-0.541168,1.306541 -1.65509,2.359474 -2.999969,3.999969c-1.142944,1.39415 -2.611328,3.861969 -4.499969,5.499962c-1.068359,0.92659 -2.999969,2.499985 -3.999969,3.499977c-2.5,2.499985 -3.999969,3.999977 -5.499969,5.499962c-1,0.999992 -2.499969,2.499985 -3.499969,3.499977c-1,0.999992 -1.592987,1.846268 -2.499969,2.499985c-1.147247,0.826904 -1.538055,1.30864 -2,1.499985c-1.306549,0.541199 -1.146454,1.646439 -1.5,1.999992c-0.353546,0.353554 -0.5,0.499992 -0.5,0.999992c0,0.499992 -0.707092,1.292885 0,1.999985c0.707092,0.707108 1.308655,1.538055 1.5,1.999985c0.541199,1.306557 1.357086,2.105804 2.5,3.499977c0.448273,0.546822 9.215668,9.83168 14.999878,14.499893c3.347046,2.701279 6.641571,4.793823 13.999908,9.999939c2.040833,1.443924 6.513702,1.82373 5.999969,3.999969c-0.229736,0.973251 -1.417328,-0.045792 -2,-0.999985c-4.846985,-7.937622 -10.542877,-15.460373 -10.999908,-15.999893c-5.560181,-6.563789 -9.726105,-12.227074 -13.999908,-15.999893c-3.180603,-2.807777 -5.411835,-4.743095 -6.499969,-4.999962c-0.486633,-0.114876 -1.999969,-0.5 -2.499969,-0.5c-0.5,0 -3.999969,0 -12.499908,0c-4.499969,0 -9.499939,0 -13.499908,0c-0.5,0 -1,0 -1.5,0c-0.5,0 -4.499969,0 -7.999939,0c-4.499969,0 -4.999969,0 -7.499939,0c-0.5,0 -1,0 -1.5,0c-2,0 -4.509003,-0.094551 -4.999969,0c-2.643982,0.509186 -4.999969,0.999992 -5.999969,0.999992c-0.5,0 -0.999969,0 -1.499969,0l-0.5,0l-0.5,0l-0.5,0" id="svg_12" fill-opacity="null" stroke-opacity="null" stroke-width="25" stroke="#000" fill="none"/>
  <path d="m372.74881,72.225883c0,0.5 -1.938446,0.753784 -3.999969,8.999939c-0.121277,0.485062 -0.5,0.499992 -0.5,0.999992c0,0.499992 -0.146454,1.146439 -0.5,1.499992c-0.353546,0.353554 -0.646423,0.146461 -0.999969,0.499992c-0.353546,0.353554 -0.5,0.5 -0.5,0.999992c0,0.5 -2.831268,4.220512 -7.999969,7.999947c-4.365662,3.192253 -10.87677,7.757874 -17.999847,10.999924c-8.366516,3.808006 -8.707581,3.594353 -8.999939,3.999969c-2.773499,3.848038 -11.46698,3.789597 -18.999878,4.499969c-8.973999,0.846275 -18.013428,0.440903 -22.499847,1.499992c-2.006409,0.47364 -2.146423,0.646439 -2.499969,0.999992c-0.353546,0.353554 -2,0 -4,0c-0.499969,0 -0.999969,0 -1.999969,0l-0.5,0" id="svg_23" fill-opacity="null" stroke-opacity="null" stroke-width="25" stroke="#000" fill="none"/>
 </g>
</svg>